<svg width="1686" height="1491" viewBox="0 0 1686 1491" fill="none" xmlns="http://www.w3.org/2000/svg">
<g clip-path="url(#clip0_33_2)">
<path d="M-365.041 608.178C-192.797 589.623 154.699 501.545 283.115 463.449C527.044 391.084 841.412 341.32 1102.52 463.449C1356.4 582.201 1942.5 684.254 2144.94 684.254L1639.16 830.839C1216.02 830.839 1061.92 679.208 657.782 679.208C108.758 679.208 -565.162 956.086 -717.493 974.641C-869.825 993.196 -1193.4 1345.74 -839.956 1317.91C-486.507 1290.08 -450.596 1189.34 401.949 1053.15C576.184 1025.32 835.435 1016.66 1190.83 1053.15C1913.66 1127.38 2113.08 1073.91 2227.58 1136.07C2678.89 1381.08 1254.85 1164.83 2428.7 1278.02C3602.54 1391.2 1332.51 1363.37 775.951 1278.02C330.705 1209.73 -659.415 1572.11 -861.86 1458.93C-1132.01 1147.82 -1341.75 357.499 -644.813 297.381C226.363 222.233 317.961 9.77772 775.951 120.18C1132.04 206.018 1750.67 419.844 2256.45 297.381" stroke="black" stroke-opacity="0.18" stroke-width="100"/>
</g>
<defs>
<clipPath id="clip0_33_2">
<rect width="1686" height="1491" fill="white"/>
</clipPath>
</defs>
</svg>
